<svg width="29" height="31" viewBox="0 0 29 31" fill="none" xmlns="http://www.w3.org/2000/svg">
<path d="M0 14.7235C0 6.79592 6.42653 0.369385 14.3541 0.369385C22.2816 0.369385 28.7081 6.79592 28.7081 14.7235V16.1863C28.7081 24.1138 22.2816 30.5404 14.3541 30.5404C6.42653 30.5404 0 24.1138 0 16.1863V14.7235Z" fill="#F3F3F3"/>
<g clip-path="url(#clip0_134_225)">
<path d="M17.5607 16.7278L17.9435 14.1342H15.5505V12.4511C15.5505 11.7416 15.8848 11.0499 16.9565 11.0499H18.0444V8.84173C18.0444 8.84173 17.0572 8.6665 16.1133 8.6665C14.1427 8.6665 12.8546 9.90873 12.8546 12.1575V14.1342H10.6641V16.7278H12.8546V22.9977H15.5505V16.7278H17.5607Z" fill="black"/>
</g>
<path d="M27.7081 14.7235V16.1863H29.7081V14.7235H27.7081ZM1 16.1863V14.7235H-1V16.1863H1ZM14.3541 29.5404C6.97882 29.5404 1 23.5615 1 16.1863H-1C-1 24.6661 5.87425 31.5404 14.3541 31.5404V29.5404ZM27.7081 16.1863C27.7081 23.5615 21.7293 29.5404 14.3541 29.5404V31.5404C22.8339 31.5404 29.7081 24.6661 29.7081 16.1863H27.7081ZM14.3541 1.36938C21.7293 1.36938 27.7081 7.34821 27.7081 14.7235H29.7081C29.7081 6.24364 22.8339 -0.630615 14.3541 -0.630615V1.36938ZM14.3541 -0.630615C5.87425 -0.630615 -1 6.24364 -1 14.7235H1C1 7.34821 6.97882 1.36938 14.3541 1.36938V-0.630615Z" fill="#F9F9F9"/>
<defs>
<clipPath id="clip0_134_225">
<rect width="8.61244" height="14.3312" fill="white" transform="translate(10.0479 8.6665)"/>
</clipPath>
</defs>
</svg>
