<svg width="29" height="31" viewBox="0 0 29 31" fill="none" xmlns="http://www.w3.org/2000/svg">
<path d="M0 14.7235C0 6.79592 6.42653 0.369385 14.3541 0.369385C22.2816 0.369385 28.7081 6.79592 28.7081 14.7235V16.1863C28.7081 24.1138 22.2816 30.5404 14.3541 30.5404C6.42653 30.5404 0 24.1138 0 16.1863V14.7235Z" fill="#F3F3F3"/>
<g clip-path="url(#clip0_134_223)">
<path d="M19.3917 9.86413C18.0823 8.48478 16.3386 7.72607 14.4854 7.72607C10.6604 7.72607 7.54784 10.9972 7.54784 15.0171C7.54784 16.3012 7.86662 17.5558 8.47288 18.6626L7.48853 22.4395L11.1667 21.4246C12.1792 22.0059 13.3197 22.3114 14.4823 22.3114H14.4854C18.3073 22.3114 21.4885 19.0402 21.4885 15.0204C21.4885 13.0728 20.7011 11.2435 19.3917 9.86413ZM14.4854 21.0831C13.4479 21.0831 12.4322 20.7908 11.5479 20.239L11.3385 20.1077L9.15721 20.7086L9.73849 18.4721L9.60099 18.2422C9.02287 17.2766 8.71971 16.1633 8.71971 15.0171C8.71971 11.677 11.3072 8.95769 14.4885 8.95769C16.0291 8.95769 17.4759 9.58825 18.5635 10.7344C19.651 11.8806 20.3198 13.4013 20.3167 15.0204C20.3167 18.3638 17.6635 21.0831 14.4854 21.0831ZM17.6479 16.5442C17.476 16.4524 16.6229 16.0121 16.4635 15.9531C16.3041 15.8907 16.1885 15.8612 16.0729 16.0451C15.9573 16.229 15.626 16.6362 15.5229 16.7611C15.4229 16.8826 15.3198 16.899 15.1479 16.807C14.1291 16.2717 13.4604 15.8513 12.7885 14.6394C12.6104 14.3176 12.9667 14.3405 13.2979 13.6443C13.3542 13.5228 13.3261 13.4177 13.2823 13.3257C13.2385 13.2338 12.8916 12.3372 12.7479 11.9726C12.6073 11.6179 12.4635 11.6672 12.3573 11.6606C12.2573 11.654 12.1416 11.654 12.026 11.654C11.9104 11.654 11.7229 11.7 11.5635 11.8806C11.4042 12.0646 10.9573 12.5047 10.9573 13.4013C10.9573 14.2979 11.5791 15.1649 11.6635 15.2864C11.751 15.4079 12.8854 17.2471 14.626 18.0386C15.726 18.5378 16.1573 18.5805 16.7073 18.4951C17.0416 18.4425 17.7323 18.055 17.876 17.6281C18.0198 17.2011 18.0198 16.8366 17.976 16.7611C17.9354 16.6789 17.8197 16.633 17.6479 16.5442Z" fill="black"/>
</g>
<path d="M27.7081 14.7235V16.1863H29.7081V14.7235H27.7081ZM1 16.1863V14.7235H-1V16.1863H1ZM14.3541 29.5404C6.97882 29.5404 1 23.5615 1 16.1863H-1C-1 24.6661 5.87425 31.5404 14.3541 31.5404V29.5404ZM27.7081 16.1863C27.7081 23.5615 21.7293 29.5404 14.3541 29.5404V31.5404C22.8339 31.5404 29.7081 24.6661 29.7081 16.1863H27.7081ZM14.3541 1.36938C21.7293 1.36938 27.7081 7.34821 27.7081 14.7235H29.7081C29.7081 6.24364 22.8339 -0.630615 14.3541 -0.630615V1.36938ZM14.3541 -0.630615C5.87425 -0.630615 -1 6.24364 -1 14.7235H1C1 7.34821 6.97882 1.36938 14.3541 1.36938V-0.630615Z" fill="#F9F9F9"/>
<defs>
<clipPath id="clip0_134_223">
<rect width="14" height="14.7134" fill="white" transform="translate(7.48853 7.72607)"/>
</clipPath>
</defs>
</svg>
