<svg width="29" height="31" viewBox="0 0 29 31" fill="none" xmlns="http://www.w3.org/2000/svg">
<path d="M0 14.7235C0 6.79592 6.42653 0.369385 14.3541 0.369385V0.369385C22.2816 0.369385 28.7081 6.79592 28.7081 14.7235V16.1863C28.7081 24.1138 22.2816 30.5404 14.3541 30.5404V30.5404C6.42653 30.5404 0 24.1138 0 16.1863V14.7235Z" fill="#F3F3F3"/>
<rect y="0.369385" width="28.7081" height="30.171" rx="14.3541" fill="#F3F3F3"/>
<g clip-path="url(#clip0_134_227)">
<path d="M22.1549 11.2438C21.9709 10.5262 21.4286 9.961 20.7401 9.76919C19.4922 9.42065 14.488 9.42065 14.488 9.42065C14.488 9.42065 9.48378 9.42065 8.23578 9.76919C7.54727 9.96103 7.00501 10.5262 6.82097 11.2438C6.48657 12.5446 6.48657 15.2585 6.48657 15.2585C6.48657 15.2585 6.48657 17.9725 6.82097 19.2733C7.00501 19.9909 7.54727 20.5325 8.23578 20.7244C9.48378 21.0729 14.488 21.0729 14.488 21.0729C14.488 21.0729 19.4921 21.0729 20.7401 20.7244C21.4286 20.5325 21.9709 19.9909 22.1549 19.2733C22.4893 17.9725 22.4893 15.2585 22.4893 15.2585C22.4893 15.2585 22.4893 12.5446 22.1549 11.2438V11.2438ZM12.8513 17.7226V12.7945L17.0338 15.2586L12.8513 17.7226V17.7226Z" fill="black"/>
</g>
<path d="M27.7081 14.7235V16.1863H29.7081V14.7235H27.7081ZM1 16.1863V14.7235H-1V16.1863H1ZM14.3541 29.5404C6.97882 29.5404 1 23.5615 1 16.1863H-1C-1 24.6661 5.87425 31.5404 14.3541 31.5404V29.5404ZM27.7081 16.1863C27.7081 23.5615 21.7293 29.5404 14.3541 29.5404V31.5404C22.8339 31.5404 29.7081 24.6661 29.7081 16.1863H27.7081ZM14.3541 1.36938C21.7293 1.36938 27.7081 7.34821 27.7081 14.7235H29.7081C29.7081 6.24364 22.8339 -0.630615 14.3541 -0.630615V1.36938ZM14.3541 -0.630615C5.87425 -0.630615 -1 6.24364 -1 14.7235H1C1 7.34821 6.97882 1.36938 14.3541 1.36938V-0.630615Z" fill="#F9F9F9"/>
<defs>
<clipPath id="clip0_134_227">
<rect width="16.0574" height="11.6522" fill="white" transform="translate(6.45923 9.42065)"/>
</clipPath>
</defs>
</svg>
