<svg width="29" height="31" viewBox="0 0 29 31" fill="none" xmlns="http://www.w3.org/2000/svg">
<path d="M0 14.7235C0 6.79592 6.42653 0.369385 14.3541 0.369385V0.369385C22.2816 0.369385 28.7081 6.79592 28.7081 14.7235V16.1863C28.7081 24.1138 22.2816 30.5404 14.3541 30.5404V30.5404C6.42653 30.5404 0 24.1138 0 16.1863V14.7235Z" fill="#F3F3F3"/>
<g clip-path="url(#clip0_134_221)">
<path d="M14.3567 12.4053C12.7265 12.4053 11.4116 13.7656 11.4116 15.4522C11.4116 17.1387 12.7265 18.499 14.3567 18.499C15.9869 18.499 17.3019 17.1387 17.3019 15.4522C17.3019 13.7656 15.9869 12.4053 14.3567 12.4053ZM14.3567 17.433C13.3032 17.433 12.442 16.5447 12.442 15.4522C12.442 14.3596 13.3007 13.4713 14.3567 13.4713C15.4128 13.4713 16.2714 14.3596 16.2714 15.4522C16.2714 16.5447 15.4102 17.433 14.3567 17.433V17.433ZM18.1093 12.2807C18.1093 12.6758 17.8017 12.9913 17.4223 12.9913C17.0404 12.9913 16.7354 12.6731 16.7354 12.2807C16.7354 11.8882 17.043 11.57 17.4223 11.57C17.8017 11.57 18.1093 11.8882 18.1093 12.2807ZM20.0599 13.0019C20.0163 12.05 19.8061 11.2067 19.132 10.512C18.4604 9.81719 17.6453 9.59975 16.7251 9.55202C15.7767 9.49633 12.9341 9.49633 11.9857 9.55202C11.0681 9.5971 10.253 9.81454 9.57885 10.5093C8.90473 11.2041 8.6971 12.0473 8.65097 12.9993C8.59714 13.9804 8.59714 16.9212 8.65097 17.9024C8.69454 18.8543 8.90473 19.6976 9.57885 20.3924C10.253 21.0871 11.0655 21.3046 11.9857 21.3523C12.9341 21.408 15.7767 21.408 16.7251 21.3523C17.6453 21.3072 18.4604 21.0898 19.132 20.3924C19.8036 19.6976 20.0138 18.8543 20.0599 17.9024C20.1137 16.9212 20.1137 13.9831 20.0599 13.0019V13.0019ZM18.8347 18.9551C18.6347 19.4748 18.2477 19.8753 17.7427 20.0848C16.9866 20.395 15.1923 20.3234 14.3567 20.3234C13.5211 20.3234 11.7243 20.3924 10.9707 20.0848C10.4683 19.8779 10.0812 19.4775 9.87875 18.9551C9.57885 18.1728 9.64806 16.3166 9.64806 15.4522C9.64806 14.5877 9.58142 12.7288 9.87875 11.9492C10.0787 11.4295 10.4657 11.029 10.9707 10.8196C11.7268 10.5093 13.5211 10.5809 14.3567 10.5809C15.1923 10.5809 16.9891 10.512 17.7427 10.8196C18.2451 11.0264 18.6322 11.4268 18.8347 11.9492C19.1346 12.7315 19.0654 14.5877 19.0654 15.4522C19.0654 16.3166 19.1346 18.1755 18.8347 18.9551Z" fill="black"/>
</g>
<path d="M27.7081 14.7235V16.1863H29.7081V14.7235H27.7081ZM1 16.1863V14.7235H-1V16.1863H1ZM14.3541 29.5404C6.97882 29.5404 1 23.5615 1 16.1863H-1C-1 24.6661 5.87425 31.5404 14.3541 31.5404V29.5404ZM27.7081 16.1863C27.7081 23.5615 21.7293 29.5404 14.3541 29.5404V31.5404C22.8339 31.5404 29.7081 24.6661 29.7081 16.1863H27.7081ZM14.3541 1.36938C21.7293 1.36938 27.7081 7.34821 27.7081 14.7235H29.7081C29.7081 6.24364 22.8339 -0.630615 14.3541 -0.630615V1.36938ZM14.3541 -0.630615C5.87425 -0.630615 -1 6.24364 -1 14.7235H1C1 7.34821 6.97882 1.36938 14.3541 1.36938V-0.630615Z" fill="#F9F9F9"/>
<defs>
<clipPath id="clip0_134_221">
<rect width="11.4833" height="13.5769" fill="white" transform="translate(8.61255 8.6665)"/>
</clipPath>
</defs>
</svg>
