<svg width="29" height="31" viewBox="0 0 29 31" fill="none" xmlns="http://www.w3.org/2000/svg">
<path d="M0 14.7235C0 6.79592 6.42653 0.369385 14.3541 0.369385C22.2816 0.369385 28.7081 6.79592 28.7081 14.7235V16.1863C28.7081 24.1138 22.2816 30.5404 14.3541 30.5404C6.42653 30.5404 0 24.1138 0 16.1863V14.7235Z" fill="#F3F3F3"/>
<g clip-path="url(#clip0_134_222)">
<path d="M10.7183 21.1131H8.10313V12.3004H10.7183V21.1131ZM9.40932 11.0983C8.57307 11.0983 7.89478 10.3735 7.89478 9.49843C7.89478 9.0781 8.05434 8.67499 8.33838 8.37777C8.62241 8.08055 9.00764 7.91357 9.40932 7.91357C9.811 7.91357 10.1962 8.08055 10.4803 8.37777C10.7643 8.67499 10.9239 9.0781 10.9239 9.49843C10.9239 10.3735 10.2453 11.0983 9.40932 11.0983ZM20.5061 21.1131H17.8966V16.8231C17.8966 15.8007 17.8769 14.4896 16.5369 14.4896C15.1772 14.4896 14.9689 15.6004 14.9689 16.7495V21.1131H12.3565V12.3004H14.8647V13.5026H14.9013C15.2504 12.8102 16.1033 12.0795 17.3757 12.0795C20.0224 12.0795 20.509 13.9033 20.509 16.2722V21.1131H20.5061Z" fill="black"/>
</g>
<path d="M27.7081 14.7235V16.1863H29.7081V14.7235H27.7081ZM1 16.1863V14.7235H-1V16.1863H1ZM14.3541 29.5404C6.97882 29.5404 1 23.5615 1 16.1863H-1C-1 24.6661 5.87425 31.5404 14.3541 31.5404V29.5404ZM27.7081 16.1863C27.7081 23.5615 21.7293 29.5404 14.3541 29.5404V31.5404C22.8339 31.5404 29.7081 24.6661 29.7081 16.1863H27.7081ZM14.3541 1.36938C21.7293 1.36938 27.7081 7.34821 27.7081 14.7235H29.7081C29.7081 6.24364 22.8339 -0.630615 14.3541 -0.630615V1.36938ZM14.3541 -0.630615C5.87425 -0.630615 -1 6.24364 -1 14.7235H1C1 7.34821 6.97882 1.36938 14.3541 1.36938V-0.630615Z" fill="#F9F9F9"/>
<defs>
<clipPath id="clip0_134_222">
<rect width="12.6142" height="15.0855" fill="white" transform="translate(7.89478 7.91211)"/>
</clipPath>
</defs>
</svg>
