<svg width="29" height="31" viewBox="0 0 29 31" fill="none" xmlns="http://www.w3.org/2000/svg">
<path d="M0 14.7235C0 6.79592 6.42653 0.369385 14.3541 0.369385C22.2816 0.369385 28.7081 6.79592 28.7081 14.7235V16.1863C28.7081 24.1138 22.2816 30.5404 14.3541 30.5404C6.42653 30.5404 0 24.1138 0 16.1863V14.7235Z" fill="#F3F3F3"/>
<path d="M19.1865 10.7846L17.3756 19.703C17.239 20.3325 16.8827 20.4891 16.3764 20.1926L13.6172 18.0693L12.2859 19.4065C12.1386 19.5604 12.0153 19.6891 11.7314 19.6891L11.9296 16.7545L17.0435 11.9288C17.2658 11.7218 16.9953 11.6071 16.6979 11.8141L10.3759 15.9712L7.65423 15.0816C7.06221 14.8885 7.05151 14.4633 7.77744 14.1668L18.4231 9.88385C18.9159 9.69083 19.3472 9.99851 19.1865 10.7846Z" fill="black"/>
<path d="M27.7081 14.7235V16.1863H29.7081V14.7235H27.7081ZM1 16.1863V14.7235H-1V16.1863H1ZM14.3541 29.5404C6.97882 29.5404 1 23.5615 1 16.1863H-1C-1 24.6661 5.87425 31.5404 14.3541 31.5404V29.5404ZM27.7081 16.1863C27.7081 23.5615 21.7293 29.5404 14.3541 29.5404V31.5404C22.8339 31.5404 29.7081 24.6661 29.7081 16.1863H27.7081ZM14.3541 1.36938C21.7293 1.36938 27.7081 7.34821 27.7081 14.7235H29.7081C29.7081 6.24364 22.8339 -0.630615 14.3541 -0.630615V1.36938ZM14.3541 -0.630615C5.87425 -0.630615 -1 6.24364 -1 14.7235H1C1 7.34821 6.97882 1.36938 14.3541 1.36938V-0.630615Z" fill="#F9F9F9"/>
</svg>
